<?xml version="1.0" encoding="utf-8"?>
<!-- Generator: Adobe Illustrator 16.0.0, SVG Export Plug-In . SVG Version: 6.00 Build 0)  -->
<!DOCTYPE svg PUBLIC "-//W3C//DTD SVG 1.1 Tiny//EN" "http://www.w3.org/Graphics/SVG/1.1/DTD/svg11-tiny.dtd">
<svg version="1.1" baseProfile="tiny" id="Layer_1" xmlns="http://www.w3.org/2000/svg" xmlns:xlink="http://www.w3.org/1999/xlink"
	 x="0px" y="0px" width="128px" height="128px" viewBox="0 0 128 128" xml:space="preserve">
<path fill-rule="evenodd" d="M128,51.541c-0.879,0.974-1.802,1.912-2.628,2.929c-6.012,7.407-12.003,14.83-18.169,22.455
	c-6.892-8.518-13.708-16.946-20.697-25.584c3.127,0,6.058,0,9.441,0c-6.246-12.018-16.181-17.87-29.077-19.834
	c4.415-3.598,8.684-7.076,13.116-10.688c-4.431-3.606-8.715-7.093-12.999-10.58c0.019-0.129,0.037-0.258,0.056-0.387
	c1.631,0.148,3.285,0.166,4.888,0.463c23.09,4.283,38.964,16.968,46.078,39.761c0.278,0.893,0.612,1.18,1.515,1.164
	c2.824-0.051,5.65-0.019,8.477-0.019C128,51.327,128,51.434,128,51.541z"/>
<path fill-rule="evenodd" d="M0,76.5c0.878-0.973,1.801-1.91,2.626-2.928c6.009-7.402,11.998-14.821,18.172-22.456
	c6.905,8.538,13.736,16.985,20.775,25.688c-3.418,0-6.52,0-10.021,0c6.314,12.172,16.526,17.807,29.565,19.74
	c-4.391,3.578-8.654,7.051-13.1,10.672c4.423,3.605,8.725,7.113,13.027,10.621c-0.045,0.162-0.09,0.326-0.135,0.488
	c-2.745-0.395-5.534-0.598-8.227-1.217c-19.011-4.365-32.979-15.057-40.998-33.061c-0.862-1.934-1.474-3.994-2.045-6.039
	c-0.271-0.973-0.7-1.23-1.647-1.209C5.329,76.859,2.664,76.82,0,76.82C0,76.715,0,76.607,0,76.5z"/>
<path fill-rule="evenodd" d="M76.479,128.021c-0.974-0.879-1.91-1.803-2.927-2.627c-7.407-6.012-14.829-12.004-22.458-18.172
	c8.543-6.908,16.994-13.742,25.659-20.75c0,3.324,0,6.342,0,9.783c11.982-6.326,17.735-16.396,19.759-29.369
	c3.574,4.389,7.067,8.678,10.686,13.123c3.617-4.443,7.104-8.729,10.593-13.014c0.128,0.021,0.257,0.043,0.385,0.062
	c-0.137,1.477-0.176,2.969-0.423,4.428C114.06,93.27,102.447,108.77,81.6,116.9c-1.188,0.463-2.416,0.857-3.66,1.119
	c-0.938,0.195-1.174,0.631-1.158,1.525c0.05,2.824,0.019,5.65,0.019,8.477C76.693,128.021,76.586,128.021,76.479,128.021z"/>
<path fill-rule="evenodd" d="M51.52,0.021c0.975,0.878,1.913,1.801,2.931,2.626c7.407,6.012,14.83,12.005,22.452,18.169
	c-8.521,6.892-16.949,13.709-25.588,20.697c0-3.345,0-6.491,0-10.122C39.178,37.849,33.489,48.08,31.435,61.093
	c-3.565-4.378-7.011-8.612-10.627-13.055c-3.626,4.448-7.174,8.799-10.722,13.15c-0.137-0.028-0.273-0.056-0.41-0.083
	c0.292-2.319,0.432-4.669,0.899-6.953c4.024-19.672,14.867-33.979,33.421-42.12c1.94-0.852,4.005-1.445,6.052-2.016
	c0.897-0.25,1.188-0.609,1.171-1.52c-0.054-2.825-0.02-5.651-0.02-8.477C51.306,0.021,51.413,0.021,51.52,0.021z"/>
<g>
</g>
<g>
</g>
<g>
</g>
<g>
</g>
<g>
</g>
<g>
</g>
<g>
</g>
<g>
</g>
<g>
</g>
<g>
</g>
<g>
</g>
<g>
</g>
<g>
</g>
<g>
</g>
<g>
</g>
</svg>
