<?xml version="1.0" encoding="UTF-8" standalone="no"?>
<svg width="163px" height="56px" viewBox="0 0 163 56" version="1.1" xmlns="http://www.w3.org/2000/svg" xmlns:xlink="http://www.w3.org/1999/xlink" xmlns:sketch="http://www.bohemiancoding.com/sketch/ns">
    <!-- Generator: Sketch 3.1 (8751) - http://www.bohemiancoding.com/sketch -->
    <title>heroku icon</title>
    <desc>Created with Sketch.</desc>
    <defs></defs>
    <g id="circleci" stroke="none" stroke-width="1" fill="none" fill-rule="evenodd" sketch:type="MSPage">
        <g id="circleci---deploy" sketch:type="MSArtboardGroup" transform="translate(-602.000000, -454.000000)" fill="#FFFFFF">
            <g id="Deploy-to-+-from-CircleCI-+-heroku-icon" sketch:type="MSLayerGroup" transform="translate(425.000000, 454.000000)">
                <g id="heroku-icon" transform="translate(177.000000, 0.000000)" sketch:type="MSShapeGroup">
                    <path d="M39.441112,56 L5.28912055,56 C2.36987072,56 0,53.6069306 0,50.6569286 L0,5.34089585 C0,2.3908939 2.36987072,0 5.28912055,0 L39.441112,0 C42.3646707,0 44.7302326,2.3908939 44.7302326,5.34089585 L44.7302326,50.6569286 C44.7302326,53.6069306 42.3646707,56 39.441112,56 Z M10.6139535,48.3287671 L10.6139535,36.0547945 L16.6790698,42.1907265 L10.6139535,48.3287671 Z M31.6470803,15.3424658 L25.0186047,15.3424658 C27.4116809,12.5167729 29.5671774,7.67123288 29.5671774,7.67123288 L36.4224337,7.67123288 C36.4224337,7.67123288 35.2496536,10.8297296 31.6470803,15.3424658 L31.6470803,15.3424658 Z M28.1552036,48.3287671 L28.1552036,26.0912211 C28.1552036,26.0912211 29.5744055,20.7727432 10.6481511,28.2708182 C10.6139535,28.3643538 10.6139535,7.70821207 10.6139535,7.70821207 L16.7973136,7.67123288 L16.7973136,20.9054332 C16.7973136,20.9054332 34.1162791,13.9642213 34.1162791,26.16953 L34.1162791,48.3287671 L28.1552036,48.3287671 Z" id="Fill-1"></path>
                    <path d="M152.362687,41.241641 C148.819191,41.241641 147.484805,39.0342236 147.484805,36.0035837 L147.484805,22.4916189 L151.354179,22.4916189 L151.354179,36.4968225 C151.354179,37.4867736 152.071111,37.9140157 152.911534,37.9140157 C154.611246,37.9140157 156.91812,37.4867736 158.837371,36.628816 L158.837371,22.4916189 L162.747908,22.4916189 L162.747908,38.3759929 C158.123869,40.9463924 154.576943,41.241641 152.362687,41.241641 Z M145.042434,40.7814005 L140.454413,40.7814005 C139.382446,37.8827541 137.885121,34.9146374 135.573102,32.344238 L133.5235,32.344238 L133.5235,40.7814005 L129.616393,40.7814005 L129.616393,14.7161606 L133.5235,14.7161606 L133.5235,29.6748434 L135.344987,29.6748434 C137.331129,27.5994195 138.859326,25.02902 139.931293,22.4916189 L144.322072,22.4916189 C142.831609,25.556994 140.908928,28.2576502 138.761562,30.4650675 C141.334284,33.7614312 143.351298,37.2540483 145.042434,40.7814005 Z M109.279882,31.7190057 C109.279882,24.6990363 112.763347,22.0296417 117.740707,22.0296417 C123.567065,22.0296417 126.199818,24.9300249 126.199818,31.5540138 C126.199818,38.5739831 122.719782,41.241641 117.740707,41.241641 C111.916064,41.241641 109.279882,38.3429945 109.279882,31.7190057 Z M117.740707,25.3260054 C114.746059,25.3260054 113.085795,27.0714455 113.085795,31.7190057 C113.085795,36.7920711 114.488786,37.9140157 117.740707,37.9140157 C120.733641,37.9140157 122.393904,36.2015739 122.393904,31.5540138 C122.393904,26.4774749 120.997773,25.3260054 117.740707,25.3260054 Z M102.285508,26.6112051 L102.285508,40.7814005 L98.3784003,40.7814005 L98.3784003,24.8310298 C101.664624,23.0178561 105.149805,22.4568838 107.427522,22.2936287 L107.427522,25.5882556 C105.829004,25.7202491 103.811989,25.9182393 102.285508,26.6112051 Z M83.0535521,32.2782412 C83.1839034,36.9900613 84.0912167,37.9140157 86.955514,37.9140157 C89.2040732,37.9140157 91.739062,37.1550532 93.696046,36.3978274 L94.3460871,39.3624705 C92.2621822,40.3194233 89.723763,41.241641 86.6982418,41.241641 C80.1858245,41.241641 79.1773174,37.6170304 79.1773174,31.8509991 C79.1773174,28.686629 79.4088624,25.8209809 80.1549518,23.1845847 C82.1085055,22.4256222 84.7121003,22.0296417 87.9983241,22.0296417 C93.3341498,22.0296417 94.9618253,25.02902 94.9618253,30.2688141 L94.9618253,32.2782412 L83.0535521,32.2782412 Z M71.887938,40.7814005 L71.887938,26.7414618 C71.887938,25.7532474 71.1744364,25.3260054 70.3271533,25.3260054 C68.6360172,25.3260054 66.5178093,25.7532474 64.6019889,26.6112051 L64.6019889,40.7814005 L60.6931664,40.7814005 L60.6931664,14.7161606 L64.6019889,14.7161606 L64.6019889,23.3131047 C66.4577792,22.6236124 68.668605,22.0296417 70.8828612,22.0296417 C74.4297875,22.0296417 75.7641727,24.2387959 75.7641727,27.2694358 L75.7641727,40.7814005 L71.887938,40.7814005 Z M87.9983241,25.3260054 C86.8285931,25.3260054 84.9728028,25.3590037 83.4446059,25.6525156 C83.2816668,26.4444765 83.0861399,27.5334227 83.0192491,29.5428499 L91.1559117,29.5428499 C91.1559117,26.8057218 90.6670945,25.3260054 87.9983241,25.3260054 Z" id="Fill-1"></path>
                </g>
            </g>
        </g>
    </g>
</svg>