<?xml version="1.0" encoding="utf-8"?>
<!-- Generator: Adobe Illustrator 18.1.1, SVG Export Plug-In . SVG Version: 6.00 Build 0)  -->
<svg version="1.1" id="Layer_1" xmlns="http://www.w3.org/2000/svg" xmlns:xlink="http://www.w3.org/1999/xlink" x="0px" y="0px"
	 viewBox="0 0 230 120" enable-background="new 0 0 230 120" xml:space="preserve">
<g>
	<path fill="#343434" d="M205.4,0H0v72.2h215.5V120H230V34.3C230,18.2,218.8,2.8,205.4,0z M71.5,11.1c2.1,0,3.8,1.7,3.8,3.8
		c0,2.1-1.7,3.8-3.8,3.8c-2.1,0-3.8-1.7-3.8-3.8C67.7,12.8,69.4,11.1,71.5,11.1z M26.3,39.7c-3.2,0-5.8-2.6-5.8-5.8
		c0-3.2,2.6-5.8,5.8-5.8c3.2,0,5.8,2.6,5.8,5.8C32,37.2,29.5,39.7,26.3,39.7z M91.8,40.1c0,1.7-1.4,3.1-3.1,3.1H51.3
		c-1.7,0-3.1-1.4-3.1-3.1V39c0-1.7,1.4-3.1,3.1-3.1h37.4c1.7,0,3.1,1.4,3.1,3.1V40.1z"/>
</g>
</svg>
