<?xml version="1.0" encoding="utf-8"?>
<!-- Generator: Adobe Illustrator 18.1.1, SVG Export Plug-In . SVG Version: 6.00 Build 0)  -->
<svg version="1.1" id="Icons" xmlns="http://www.w3.org/2000/svg" xmlns:xlink="http://www.w3.org/1999/xlink" x="0px" y="0px"
	 viewBox="-0.7 732 60 60" enable-background="new -0.7 732 60 60" xml:space="preserve">
<g id="App_Store">
	<path fill="#DDDDDD" d="M33.1,746c0.8,1.3,1.5,2.6,2.2,3.7c3.4,5.3,10.5,19,11.2,20.5c-0.1,0.2-0.4,0.4-0.7,0.5l-0.1,0.1l-0.1,0.1
		l-0.1,0.1c-0.2,0.1-0.4,0.2-0.5,0.3c0,0-0.1,0-0.2-0.1c-1.3-1.6-6-11.7-9.7-20.4c-0.3-0.7-0.7-1.6-1.2-2.6
		C33.7,747.5,33.4,746.8,33.1,746 M24.6,750.8l2.5,1.5l-15.9,27.5l-2.5-1.5L24.6,750.8 M31.8,760.6l3.3,6.9h-8.4l4-6.9H31.8
		 M57.3,760.6v6.9h-5.1c0-0.1-0.1-0.1-0.1-0.2c-0.2-0.4-0.7-1.3-1.4-2.5c-0.6-1.1-1.3-2.5-2.1-4c0,0,0-0.1-0.1-0.1H57.3 M11.6,760.7
		l-4,6.9H1.3v-6.9H11.6 M49.2,775.9l1.3,2.4l-0.7,0.4l-1.5-2.4L49.2,775.9 M53.2,782.9c0.1,0,0.1,0,0.2,0.1c0.4,0.4,0.6,1.3,0.7,2.4
		c-0.7-0.3-1.4-0.7-1.7-1.2c-0.3-0.4-0.4-0.7-0.4-0.7c0-0.1,0.1-0.2,0.2-0.3C52.8,782.9,53.1,782.9,53.2,782.9 M6.4,784l0.5,0.3
		l-0.5,0.4L6.4,784 M27.9,735c0,0-0.1,0-0.1,0c-1.8,0.9,3.7,12.3,5.5,16.5c1.8,4.2,8.9,20.5,10.4,21.3c0.5,0.3,1,0.4,1.3,0.4
		c0.5,0,1-0.3,1.6-0.6c1-0.4,2.7-1.7,1.8-3.2c-0.8-1.6-7.9-15.4-11.4-20.7C33.7,743.5,29.4,735,27.9,735L27.9,735z M24.3,748.6
		c-0.5,0-1,0.3-1.2,0.7L6.6,777.9c-0.4,0.7-0.1,1.5,0.5,1.9l3.5,2.1c0.2,0.1,0.4,0.2,0.7,0.2c0.5,0,0.9-0.2,1.2-0.7l16.5-28.6
		c0.4-0.7,0.1-1.5-0.5-1.9l-3.5-2.1C24.8,748.7,24.6,748.6,24.3,748.6L24.3,748.6z M33.1,758.6h-3.6l-6.3,10.9h15L33.1,758.6
		L33.1,758.6z M58,758.6H45.2c1.4,2.7,2.8,5.3,3.8,7.1c0.7,1.3,1.2,2.2,1.4,2.5c0.3,0.5,0.4,0.8,0.5,1.3H58c0.7,0,1.4-0.6,1.4-1.4
		v-8.2C59.3,759.2,58.7,758.6,58,758.6L58,758.6z M15.1,758.7H0.7c-0.7,0-1.4,0.6-1.4,1.4v8.1c0,0.7,0.5,1.4,1.4,1.4h8.1L15.1,758.7
		L15.1,758.7z M49.4,773.7c-0.2,0-0.5,0.1-0.7,0.2l-2.1,1.1c-0.7,0.4-1,1.2-0.5,1.9l2.2,3.3c0.3,0.5,0.8,0.8,1.4,0.8
		c0.3,0,0.5-0.1,0.8-0.2l1.4-0.9c0.6-0.4,0.9-1.4,0.5-2.1l-1.7-3.2C50.4,774,49.9,773.7,49.4,773.7L49.4,773.7z M53.2,780.9
		c-0.6,0-1.3,0.2-2.1,0.7c-0.5,0.5-1.8,1.6-0.3,3.8c1.5,2.2,5,2.3,5.4,3.7C56.2,789,57,780.9,53.2,780.9L53.2,780.9z M5.4,781.2
		c-0.4,0-0.7,0.3-0.8,0.8L4,787.3c-0.1,0.5,0.1,0.8,0.4,0.8c0.2,0,0.3-0.1,0.5-0.2l4.6-3.2c0.5-0.4,0.5-1.1-0.1-1.4L6,781.4
		C5.8,781.2,5.6,781.2,5.4,781.2L5.4,781.2z"/>
</g>
</svg>
