<?xml version="1.0" encoding="utf-8"?>
<!-- Generator: Adobe Illustrator 18.1.1, SVG Export Plug-In . SVG Version: 6.00 Build 0)  -->
<svg version="1.1" id="Layer_1" xmlns="http://www.w3.org/2000/svg" xmlns:xlink="http://www.w3.org/1999/xlink" x="0px" y="0px"
	 viewBox="101.9 685.5 60 60" enable-background="new 101.9 685.5 60 60" xml:space="preserve">
<g id="Layer_2">
</g>
<g id="Layer_3">
</g>
<g>
	<path fill="#DDDDDD" d="M151.5,705.5H103c-0.5,0-1,0.4-1,1v38.1c0,0.5,0.4,1,1,1h48.6c0.5,0,1-0.4,1-1v-38.1
		C152.5,705.9,152,705.5,151.5,705.5z M104,707.4h46.5v4.5H104V707.4z M150.5,743.6h-46.5v-29.8h46.5V743.6z"/>
	<rect x="105.9" y="740" fill="#DDDDDD" width="22.7" height="2.1"/>
	<rect x="129.7" y="740" fill="#DDDDDD" width="2.9" height="2.1"/>
	<rect x="133.7" y="740" fill="#DDDDDD" width="2.9" height="2.1"/>
	<rect x="137.6" y="740" fill="#DDDDDD" width="2.9" height="2.1"/>
	<rect x="141.6" y="740" fill="#DDDDDD" width="2.9" height="2.1"/>
	<rect x="145.5" y="740" fill="#DDDDDD" width="2.9" height="2.1"/>
	<rect x="105.9" y="708.9" fill="#DDDDDD" width="2.7" height="1.5"/>
	<rect x="109.4" y="708.9" fill="#DDDDDD" width="2.7" height="1.5"/>
</g>
<g>
	<path fill="#DDDDDD" d="M161,685.5h-48.6c-0.5,0-1,0.4-1,1v19h1.9v-11.7h46.5v29.8h-7.5v1.9h8.5c0.5,0,1-0.4,1-1v-38.1
		C161.9,685.9,161.5,685.5,161,685.5z M160,691.9h-46.5v-4.5H160L160,691.9L160,691.9z"/>
	<rect x="152.5" y="720" fill="#DDDDDD" width="1.4" height="2.1"/>
	<rect x="155" y="720" fill="#DDDDDD" width="2.9" height="2.1"/>
	<rect x="115.4" y="688.9" fill="#DDDDDD" width="2.7" height="1.5"/>
	<rect x="118.9" y="688.9" fill="#DDDDDD" width="2.7" height="1.5"/>
</g>
</svg>
