<?xml version="1.0" encoding="utf-8"?>
<!-- Generator: Adobe Illustrator 18.1.1, SVG Export Plug-In . SVG Version: 6.00 Build 0)  -->
<svg version="1.1" id="Capa_1" xmlns="http://www.w3.org/2000/svg" xmlns:xlink="http://www.w3.org/1999/xlink" x="0px" y="0px"
	 viewBox="276 366 60 60" enable-background="new 276 366 60 60" xml:space="preserve">
<g>
	<path fill="#DDDDDD" d="M294.3,368c2,0,3.7,0.8,5,2.1c1.4,1.3,2.1,3,2.1,5c0,1.3-0.3,2.5-0.9,3.5c-0.7,1-1.6,1.8-2.6,2.5v18.1
		c1.3-0.7,3.1-1.3,5.6-2.1c1.3-0.4,2.3-0.8,3.1-1c0.8-0.4,1.7-0.8,2.6-1.2c0.9-0.4,1.6-0.9,2.1-1.4c0.5-0.5,0.9-1,1.4-1.8
		c0.5-0.7,0.8-1.6,1-2.5c0.1-1,0.3-2.1,0.3-3.4c-1.2-0.5-2-1.4-2.6-2.5c-0.7-1-0.9-2.2-0.9-3.5c0-2,0.8-3.7,2.1-5
		c1.3-1.4,3-2.1,5-2.1s3.7,0.8,5,2.1c1.4,1.3,2.1,3,2.2,4.8c0,1.3-0.3,2.5-0.9,3.5c-0.7,1-1.6,1.8-2.6,2.5c0,7-2.7,12-8.2,15.1
		c-1.7,0.9-4.2,2-7.4,3c-3,1-5.1,1.8-6.1,2.6c-1,0.8-1.6,2-1.6,3.7v0.9c1.2,0.5,2,1.4,2.6,2.5c0.7,1,0.9,2.2,0.9,3.5
		c0,2-0.8,3.7-2.1,5c-1.3,1.4-3,2.1-5,2.1s-3.7-0.8-5-2.1c-1.4-1.3-2.1-3-2.1-5c0-1.3,0.3-2.5,0.9-3.5c0.7-1,1.6-1.8,2.6-2.5v-29.9
		c-1.2-0.5-2-1.4-2.6-2.5c-0.7-1-0.9-2.2-0.9-3.5c0-2,0.8-3.7,2.1-5C290.7,368.7,292.4,368,294.3,368 M294.3,378.6
		c0.9,0,1.8-0.4,2.5-1c0.7-0.7,0.9-1.4,1-2.5c0-0.9-0.4-1.8-1-2.5c-0.7-0.7-1.6-1-2.5-1s-1.8,0.4-2.5,1c-0.7,0.7-1,1.6-1,2.5
		c0,0.9,0.4,1.8,1,2.5C292.5,378.2,293.4,378.6,294.3,378.6 M317.6,383.3c0.9,0,1.8-0.4,2.5-1c0.8-0.7,1-1.6,1-2.5s-0.4-1.8-1-2.5
		s-1.6-1-2.5-1s-1.8,0.4-2.5,1s-1,1.6-1,2.5c0,0.9,0.4,1.8,1,2.5S316.6,383.3,317.6,383.3 M294.3,420.6c0.9,0,1.8-0.4,2.5-1
		c0.7-0.7,0.9-1.6,1-2.5c0-0.9-0.4-1.8-1-2.5c-0.7-0.7-1.6-1-2.5-1s-1.8,0.4-2.5,1c-0.7,0.7-1,1.6-1,2.5c0,0.9,0.4,1.8,1,2.5
		C292.5,420.2,293.4,420.6,294.3,420.6 M294.3,366.1c-2.5,0-4.7,0.9-6.3,2.7c-1.7,1.7-2.6,3.9-2.6,6.2c0,1.7,0.4,3.2,1.2,4.5
		c0.5,0.8,1.2,1.8,2.3,2.6V410c-1,0.7-1.7,1.6-2.3,2.5c-0.8,1.3-1.2,2.8-1.2,4.5c0,2.5,0.9,4.7,2.7,6.3c1.7,1.7,3.9,2.6,6.2,2.6
		c2.5,0,4.7-0.9,6.3-2.7c1.7-1.7,2.6-3.9,2.6-6.2c0-1.7-0.4-3.2-1.2-4.5c-0.5-0.8-1.2-1.8-2.3-2.6c0-1.2,0.5-1.7,0.8-2
		c0.9-0.7,3.3-1.5,5.6-2.3c3.1-1,5.8-2.1,7.7-3.1c5.9-3.3,8.9-8.6,9.2-15.8c1-0.7,1.8-1.6,2.3-2.5c0.8-1.3,1.2-2.8,1.2-4.5v-0.1
		l0-0.1c-0.2-2.5-1.1-4.5-2.8-6c-1.7-1.7-3.9-2.6-6.2-2.6c-2.5,0-4.7,0.9-6.3,2.7c-1.7,1.7-2.6,3.9-2.6,6.2c0,1.7,0.4,3.2,1.2,4.5
		c0.5,0.8,1.2,1.8,2.3,2.5c0,0.7-0.1,1.3-0.2,2c-0.2,0.7-0.4,1.4-0.7,1.7l-0.1,0.1l0,0.1c-0.5,0.8-0.8,1.2-1.2,1.5
		c-0.5,0.5-0.9,0.8-1.5,1c-0.9,0.4-1.8,0.8-2.6,1.2c-0.2,0.1-0.4,0.2-0.7,0.2c-0.7,0.2-1.4,0.5-2.3,0.7c-1.3,0.4-2.3,0.8-3.2,1.1
		V382c1-0.7,1.7-1.6,2.3-2.5c0.8-1.3,1.2-2.8,1.2-4.5c0-2.5-0.9-4.7-2.7-6.3C298.8,367,296.7,366.1,294.3,366.1L294.3,366.1z
		 M294.3,376.7c-0.4,0-0.9-0.2-1.2-0.5c-0.3-0.3-0.5-0.8-0.5-1.2c0-0.4,0.2-0.9,0.5-1.2c0.3-0.3,0.8-0.5,1.2-0.5
		c0.4,0,0.9,0.2,1.2,0.5c0.3,0.3,0.5,0.7,0.5,1.1c-0.1,0.7-0.3,1-0.5,1.3C295.2,376.5,294.7,376.7,294.3,376.7L294.3,376.7z
		 M317.6,381.4c-0.4,0-0.9-0.2-1.2-0.5c-0.3-0.3-0.5-0.8-0.5-1.2s0.2-0.9,0.5-1.2c0.3-0.3,0.8-0.5,1.2-0.5c0.4,0,0.9,0.2,1.2,0.5
		c0.3,0.3,0.5,0.8,0.5,1.2c0,0.7-0.3,1-0.4,1l-0.1,0.1l-0.1,0.1C318.4,381.2,318,381.4,317.6,381.4L317.6,381.4z M294.3,418.7
		c-0.4,0-0.9-0.2-1.2-0.5c-0.3-0.3-0.5-0.8-0.5-1.2c0-0.4,0.2-0.9,0.5-1.2c0.3-0.3,0.8-0.5,1.2-0.5c0.4,0,0.9,0.2,1.2,0.5
		c0.3,0.3,0.5,0.7,0.5,1c-0.1,0.6-0.3,1-0.5,1.3C295.2,418.5,294.7,418.7,294.3,418.7L294.3,418.7z"/>
</g>
</svg>
