<?xml version="1.0" encoding="utf-8"?>
<!-- Generator: Adobe Illustrator 18.1.1, SVG Export Plug-In . SVG Version: 6.00 Build 0)  -->
<svg version="1.1" id="Layer_1" xmlns="http://www.w3.org/2000/svg" xmlns:xlink="http://www.w3.org/1999/xlink" x="0px" y="0px"
	 viewBox="276 366 60 60" enable-background="new 276 366 60 60" xml:space="preserve">
<g id="shapes">
	<g id="status">
		<path id="clock" display="none" fill="none" stroke="#DDDDDD" stroke-width="1.9333" stroke-miterlimit="10" d="M311.1,394.6H307
			V385c0-0.8-0.6-1.4-1.4-1.4s-1.4,0.6-1.4,1.4v11c0,0.8,0.6,1.4,1.4,1.4h5.5c0.8,0,1.4-0.6,1.4-1.4S311.8,394.6,311.1,394.6z"/>
		<path id="times" display="none" fill="none" stroke="#DDDDDD" stroke-width="1.9333" stroke-miterlimit="10" d="M312.4,399l-3-3
			l3-3c0.5-0.5,0.5-1.4,0-2l-2-2c-0.5-0.5-1.4-0.5-2,0l-2.9,3l-3-3c-0.5-0.5-1.4-0.5-2,0l-2,2c-0.5,0.5-0.5,1.4,0,2l3,3l-3,3
			c-0.5,0.5-0.5,1.4,0,2l2,2c0.5,0.5,1.4,0.5,2,0l3-3l3,3c0.5,0.5,1.4,0.5,2,0l2-2C312.9,400.4,312.9,399.5,312.4,399z"/>
		<path id="check" fill="none" stroke="#DDDDDD" stroke-width="1.9333" stroke-miterlimit="10" d="M314.4,393l-7.8,7.8l-2,2
			c-0.5,0.5-1.4,0.5-2,0l-2-2l-3.9-3.9c-0.5-0.5-0.5-1.4,0-2l2-2c0.5-0.5,1.4-0.5,2,0l3,3l6.8-6.8c0.5-0.5,1.4-0.5,2,0l2,2
			C314.9,391.6,314.9,392.5,314.4,393z"/>
		
			<circle id="circle_2_" display="none" fill="none" stroke="#DDDDDD" stroke-width="1.9333" stroke-miterlimit="10" cx="305.6" cy="396" r="6.9"/>
		<path id="turn_1_" fill="none" stroke="#DDDDDD" stroke-width="1.9333" stroke-miterlimit="10" d="M305.6,367
			c-13.5,0-24.9,9.2-28.1,21.8c0,0.1-0.1,0.2-0.1,0.3c0,0.8,0.6,1.4,1.4,1.4h11.7c0.6,0,1-0.3,1.3-0.8v-0.1
			c2.4-5.2,7.7-8.8,13.8-8.8c8.4,0,15.2,6.8,15.2,15.2s-6.8,15.2-15.2,15.2c-6.1,0-11.4-3.6-13.8-8.8v-0.1c-0.2-0.5-0.7-0.8-1.3-0.8
			h-11.7c-0.8,0-1.4,0.6-1.4,1.4c0,0.1,0,0.2,0.1,0.3c3.2,12.5,14.6,21.8,28.1,21.8c16,0,29-13,29-29S321.6,367,305.6,367z"/>
	</g>
</g>
<g id="dev" display="none">
	<path display="inline" fill="none" stroke="#595959" stroke-width="2" stroke-linecap="round" stroke-miterlimit="10" d="
		M80.2,454.1c25.7,101,116.9,175,225.8,175c128.5,0,233.2-104.7,233.2-233.2S434.5,162.8,306,162.8c-108.9,0-200.1,74.1-225.8,175"
		/>
	
		<rect x="265" y="319.5" display="inline" fill="none" stroke="#595959" stroke-width="0.5" stroke-miterlimit="10" width="82.6" height="153"/>
	
		<rect x="229.5" y="355" display="inline" fill="none" stroke="#595959" stroke-width="0.5" stroke-miterlimit="10" width="153" height="82.6"/>
	
		<rect x="229.5" y="319.5" display="inline" fill="none" stroke="#595959" stroke-width="0.5" stroke-miterlimit="10" width="34.9" height="34.9"/>
	
		<rect x="347" y="437" display="inline" fill="none" stroke="#595959" stroke-width="0.5" stroke-miterlimit="10" width="34.9" height="34.9"/>
	
		<rect x="229.5" y="437" display="inline" fill="none" stroke="#595959" stroke-width="0.5" stroke-miterlimit="10" width="34.9" height="34.9"/>
	
		<rect x="347" y="319.5" display="inline" fill="none" stroke="#595959" stroke-width="0.5" stroke-miterlimit="10" width="34.9" height="34.9"/>
	
		<line display="inline" fill="none" stroke="#595959" stroke-width="2" stroke-linecap="round" stroke-miterlimit="10" x1="244.2" y1="334.2" x2="367.8" y2="457.8"/>
	
		<line display="inline" fill="none" stroke="#595959" stroke-width="2" stroke-linecap="round" stroke-miterlimit="10" x1="367.8" y1="334.2" x2="244.2" y2="457.8"/>
	
		<path id="slim_x5F_turn" display="inline" fill="none" stroke="#595959" stroke-width="2" stroke-linecap="round" stroke-miterlimit="10" d="
		M9.8,472.5C43.5,604.7,163.4,702,306,702c168.9,0,306-137.1,306-306S474.9,90,306,90C163.4,90,43.5,187.3,9.8,319.5"/>
	
		<path id="slim_x5F_turn2" display="inline" fill="none" stroke="#595959" stroke-width="2" stroke-linecap="round" stroke-miterlimit="10" d="
		M38.6,465.2c30.6,118.7,138.9,206.2,266.8,206.2c152.4,0,275.4-123,275.4-275.4s-123-275.4-275.4-275.4
		c-127.9,0-236.2,87.5-266.8,206.9"/>
	
		<line display="inline" fill="none" stroke="#595959" stroke-width="2" stroke-linecap="round" stroke-miterlimit="10" x1="225.2" y1="315.2" x2="386.8" y2="476.8"/>
	
		<line display="inline" fill="none" stroke="#595959" stroke-width="2" stroke-linecap="round" stroke-miterlimit="10" x1="386.8" y1="315.2" x2="225.2" y2="476.8"/>
	
		<path id="slim_x5F_turn3" display="inline" fill="none" stroke="#595959" stroke-width="2" stroke-linecap="round" stroke-miterlimit="10" d="
		M45.9,487.8c37.9,107.1,139.5,183.6,259.5,183.6c152.4,0,275.4-123,275.4-275.4s-123-275.4-275.4-275.4
		c-120,0-221.5,76.5-259.5,183.6"/>
	
		<line display="inline" fill="none" stroke="#595959" stroke-width="2" stroke-linecap="round" stroke-miterlimit="10" x1="214.2" y1="304.2" x2="397.8" y2="487.8"/>
	
		<line display="inline" fill="none" stroke="#595959" stroke-width="2" stroke-linecap="round" stroke-miterlimit="10" x1="397.8" y1="304.2" x2="214.2" y2="487.8"/>
	
		<path id="test" display="inline" fill="none" stroke="#595959" stroke-width="2" stroke-linecap="round" stroke-miterlimit="10" d="
		M397.8,487.8L214.2,304.2 M397.8,304.2L214.2,487.8"/>
	
		<path id="times_x5F_slim" display="inline" fill="none" stroke="#595959" stroke-width="2" stroke-linecap="round" stroke-miterlimit="10" d="
		M504.9,594.9L107.1,197.1 M504.9,197.1L107.1,594.9"/>
	
		<path id="check_x5F_slim" display="inline" fill="none" stroke="#595959" stroke-width="2" stroke-linecap="round" stroke-miterlimit="10" d="
		M214.2,579.6L30.6,396 M581.4,212.4L214.2,579.6"/>
	
		<path id="check_x5F_slim2" display="inline" fill="none" stroke="#595959" stroke-width="2" stroke-linecap="round" stroke-miterlimit="10" d="
		M174.4,594.9L39.8,460.3 M572.2,197.1L174.4,594.9"/>
	
		<rect x="30.6" y="120.6" display="inline" fill="none" stroke="#595959" stroke-width="2" stroke-linecap="round" stroke-miterlimit="10" width="550.8" height="550.8"/>
	
		<path id="single_x5F_dot" display="inline" fill="none" stroke="#595959" stroke-width="2" stroke-linecap="round" stroke-miterlimit="10" d="
		M306,396"/>
	
		<circle id="slim_x5F_circle" display="inline" fill="none" stroke="#595959" stroke-width="2" stroke-linecap="round" stroke-miterlimit="10" cx="306" cy="396" r="3.1"/>
	
		<path id="child" display="inline" fill="none" stroke="#595959" stroke-width="2" stroke-linecap="round" stroke-miterlimit="10" d="
		M581.4,396c0,17.1-13.5,30.6-30.6,30.6c-17.1,0-30.6-13.5-30.6-30.6s13.5-30.6,30.6-30.6C567.9,365.4,581.4,378.9,581.4,396z
		 M306,90v612 M306,90v612 M306,396h214.2"/>
	<path id="repo" display="inline" fill="#E16060" d="M476.7,90H135.3c-23.9,0-43.5,17.1-43.5,40.4V579c0,23.9,20.2,37.9,43.5,37.9
		h54.5V702l52-53.2l52,53.2v-85.1h183c23.9,0,43.5-14.1,43.5-37.9V130.4C520.2,107.1,500.6,90,476.7,90z M489.6,579
		c0,8.6-4.3,13.5-12.9,13.5h-183v-55.1h-104v55.1h-54.5c-8.6,0-12.9-4.3-12.9-13.5v-66.1h367.2V579z M489.6,488.4H189.7V114.5h287.6
		c8.6,0,12.2,7.3,12.2,15.9V488.4z M263.2,445.6h-42.8v-42.8h42.8V445.6z M263.2,359.9h-42.8v-42.8h42.8V359.9z M263.2,273.6h-42.8
		v-42.8h42.8V273.6z M263.2,187.9h-42.8v-42.8h42.8V187.9z"/>
	<path id="repo2" display="inline" fill="#E16060" d="M466.3,90H145.7c-29.4,0-53.9,22.6-53.9,52v427.8c0,29.4,24.5,58.8,53.9,58.8
		h62.4v74.7l55.1-53.2l55.1,53.2v-74.7h148.1c29.4,0,53.9-29.4,53.9-58.8V142C520.2,112.6,495.7,90,466.3,90z M465.1,573.5H318.2
		v-30.6H208.1v30.6h-61.2v-55.1h318.2V573.5z M465.1,463.3H202V145.1h263.2V463.3z M275.4,426.6h-42.8v-42.8h42.8V426.6z
		 M275.4,218.5h-42.8v-42.8h42.8V218.5z M275.4,292h-42.8v-42.8h42.8V292z M275.4,359.3h-42.8v-42.8h42.8V359.3z"/>
	<path id="repo3" display="inline" fill="#010101" d="M271.7,258.3h-34.3v34.3h34.3V258.3z M271.7,189.1h-34.3v34.3h34.3V189.1z
		 M478,120.6H134c0,0-34.3,0-34.3,34.3V568c0,34.3,34.3,34.3,34.3,34.3h68.5v69.2L254,620l52,51.4v-68.5h172c0,0,34.3-0.6,34.3-34.3
		V154.9C512.9,120.6,478,120.6,478,120.6z M478,533.7c0,33-34.3,34.3-34.3,34.3H306v-34.3H202.6V568h-34.3
		c-34.3,0-34.3-34.3-34.3-34.3v-34.3H478V533.7z M478,464.5H202.6V154.9h276L478,464.5z M271.7,396h-34.3v34.3h34.3V396z
		 M271.7,327.5h-34.3v34.3h34.3V327.5z"/>
	
		<path id="stop" display="inline" fill="none" stroke="#595959" stroke-width="2" stroke-linecap="round" stroke-miterlimit="10" d="
		M581.4,396c0,152.4-123,275.4-275.4,275.4S30.6,548.4,30.6,396s123-275.4,275.4-275.4S581.4,243.6,581.4,396z M111.4,590.6
		l389.2-389.2"/>
	
		<circle display="inline" fill="none" stroke="#595959" stroke-width="2" stroke-linecap="round" stroke-miterlimit="10" cx="306" cy="396" r="275.4"/>
	
		<path id="slim_x5F_clock" display="inline" fill="none" stroke="#595959" stroke-width="2" stroke-linecap="round" stroke-miterlimit="10" d="
		M45.9,304.2c37.9-107.1,139.5-183.6,259.5-183.6c152.4,0,275.4,123,275.4,275.4s-123,275.4-275.4,275.4
		c-120,0-221.5-76.5-259.5-183.6 M306,212.4V396 M306,396h122.4"/>
	<path id="slim_x5F_settings" display="inline" fill="none" stroke="#010101" stroke-miterlimit="10" d="M580.2,369.7
		c-1.8-12.9-11.6-23.3-23.9-24.5c-15.3-1.8-47.1-5.5-47.1-5.5c-13.5-3.7-23.9-15.3-23.9-30.6c0-5.5,1.8-11.6,4.9-15.9
		c0-0.6,28.8-37.9,28.8-37.9c8-9.8,7.3-23.9-0.6-33.7c-11-14.1-23.3-26.3-37.3-37.3c-9.8-8.6-24.5-9.2-34.3-1.2
		c-12.2,9.8-36.7,28.8-36.7,28.8c-4.9,3.1-11,4.9-17.1,4.9c-14.7,0-26.9-11-30-25.1l-5.5-45.9c-1.8-12.9-12.2-22.6-24.5-23.9
		c-17.7-1.8-35.5-1.8-52.6,0c-12.9,1.8-22.6,11.6-24.5,23.9l-5.5,45.9c-2.4,14.1-14.7,25.1-30,25.1c-6.7,0-13.5-2.4-18.4-5.5
		L165.2,183c-9.8-8-23.9-7.3-33.7,0.6c-14.1,11-26.3,23.3-37.3,37.3c-8.6,9.8-8.6,23.9-0.6,33.7c9.2,12.2,27.5,36.1,27.5,36.1
		c4.3,4.9,6.1,11.6,6.1,17.7c0,15.3-11.6,28.2-26.3,30.6l-44.7,5.5c-12.9,1.8-22.6,12.2-23.9,24.5c-1.8,17.7-1.8,35.5,0,52.6
		c1.8,12.9,11.6,23.3,23.9,24.5l44.7,5.5c14.7,1.8,26.3,14.1,26.3,30c0,6.7-2.4,13.5-6.1,18.4l-27.5,36.1c-8,9.8-7.3,23.9,0.6,33.7
		c11,13.5,23.3,26.3,37.3,37.3c4.9,4.3,11,6.1,17.1,6.1c5.5,0,12.2-1.8,16.5-5.5l36.1-28.2c4.9-3.7,11.6-5.5,18.4-5.5
		c14.7,0,27.5,11,30,25.1c0,0.6,5.5,45.9,5.5,45.9c1.8,12.9,12.2,22.6,24.5,23.9c8.6,0.6,17.7,1.2,26.3,1.2s17.7-0.6,26.3-1.2
		c12.9-1.8,22.6-11.6,24.5-23.9l5.5-45.9c3.1-14.1,14.7-25.1,30-25.1c6.1,0,12.9,1.8,17.1,4.9l37.3,28.8c4.3,4.3,11,5.5,16.5,5.5
		c6.1,0,12.2-1.8,17.1-6.1c14.1-11,26.3-23.3,37.3-37.3c8-9.8,8.6-23.9,0.6-33.7c-9.8-12.9-28.8-37.3-28.8-37.9
		c-3.7-4.3-4.9-10.4-4.9-16.5c0-14.1,10.4-26.9,23.9-30c0,0,31.8-4.3,47.1-5.5c12.9-1.8,22.6-12.2,23.9-24.5
		C582,404.6,582,386.8,580.2,369.7z M306,489.6c-51.4,0-93.6-41.6-93.6-93.6c0-51.4,41.6-93.6,93.6-93.6c51.4,0,93.6,41.6,93.6,93.6
		C399.6,447.4,357.4,489.6,306,489.6z"/>
	
		<circle id="slim_x5F_circle_2_" display="inline" fill="none" stroke="#595959" stroke-width="2" stroke-linecap="round" stroke-miterlimit="10" cx="306" cy="396" r="3.1"/>
	
		<path id="slim_x5F_settings2" display="inline" fill="none" stroke="#595959" stroke-width="2" stroke-linecap="round" stroke-miterlimit="10" d="
		M580.2,422.3c-1.8,12.9-11.6,23.3-23.9,24.5c-15.3,1.8-47.1,5.5-47.1,5.5c-14.1,3.1-23.9,15.3-23.9,30c0,6.1,1.8,12.2,4.9,16.5
		c0,0.6,19,25.1,28.8,37.9c8,9.8,7.3,23.9-0.6,33.7c-11,14.1-23.3,26.3-37.3,37.3c-4.9,4.3-11,6.1-17.1,6.1
		c-5.5,0-12.2-1.8-16.5-5.5L410,580.2c-4.3-3.7-11-4.9-17.1-4.9c-14.7,0-26.9,11-30,25.1l-5.5,45.9c-1.8,12.9-12.2,22.6-24.5,23.9
		c-9.2,0.6-18.4,1.2-26.9,1.2c-8.6,0-17.7-0.6-26.3-1.2c-12.9-1.8-22.6-11.6-24.5-23.9c0,0-5.5-45.3-5.5-45.9
		c-2.4-14.1-14.7-25.1-30-25.1c-6.7,0-13.5,2.4-18.4,5.5L165.2,609c-4.3,4.3-11,5.5-16.5,5.5c-6.1,0-12.2-2.4-17.1-6.1
		c-14.1-11-26.3-23.3-37.3-37.3c-8-9.8-8.6-23.9-0.6-33.7l27.5-36.1c4.3-4.9,6.1-11.6,6.1-18.4c0-15.3-11.6-28.2-26.3-30l-44.7-5.5
		c-12.9-1.8-22.6-12.2-23.9-24.5c-1.8-17.1-1.8-34.9,0-52.6c1.2-12.9,11.6-22.6,23.9-24.5l44.7-5.5c14.7-2.4,26.3-14.7,26.3-30.6
		c0-6.1-2.4-12.9-6.1-17.7c0,0-18.4-23.9-27.5-36.1c-8-9.8-8-23.9,0.6-33.7c11-14.1,23.3-26.3,37.3-37.3c9.8-8,23.9-8.6,33.7-0.6
		l36.1,28.2c4.9,3.7,11.6,5.5,18.4,5.5c14.7,0,27.5-11,30-25.1l5.5-45.9c1.8-12.9,12.2-22.6,24.5-23.9c17.1-1.8,34.9-1.8,52.6,0
		c12.9,1.8,22.6,11.6,24.5,23.9l5.5,45.9c3.1,14.1,14.7,25.1,30,25.1c6.1,0,12.2-2.4,17.1-4.9c0,0,24.5-19,37.3-28.8
		c9.8-8,23.9-7.3,33.7,0.6c14.1,11,26.3,23.3,37.3,37.3c8,9.8,8.6,23.9,0.6,33.7c0,0-28.8,37.3-28.8,37.9
		c-3.7,4.3-4.9,10.4-4.9,15.9c0,14.7,10.4,26.9,23.9,30.6c0,0,31.8,4.3,47.1,5.5c12.9,1.8,22.6,12.2,23.9,24.5
		C582,386.8,582,404.6,580.2,422.3z"/>
	<path id="closer" display="inline" fill="none" stroke="#595959" stroke-width="0.5" stroke-miterlimit="10" d="M566.1,507.4
		L454.7,396l111.4-111.4c20.8-20.8,20.8-53.9,0-74.1l-74.7-74.7c-20.8-20.8-53.9-20.8-74.1,0L306,247.3L194.6,135.9
		c-20.8-20.8-53.9-20.8-74.1,0l-74.7,74.7c-20.8,20.8-20.8,53.9,0,74.1L157.3,396L45.9,507.4c-20.8,20.8-20.8,53.9,0,74.1l74.1,74.1
		c20.8,20.8,53.9,20.8,74.1,0l112-110.8l111.4,111.4c20.8,20.8,53.9,20.8,74.1,0l74.1-74.1C586.3,561.2,586.3,528.2,566.1,507.4z"/>
	<path id="github-logo" display="inline" fill="none" stroke="#595959" stroke-width="0.5" stroke-miterlimit="10" d="M306,90
		C137.1,90,0,227.1,0,396c0,135.3,87.5,249.7,209.3,290.1c15.3,3.1,20.8-6.7,20.8-14.7c0-7.3,0-31.2-0.6-56.9
		c-85.1,18.4-102.8-36.1-102.8-36.1c-14.1-35.5-34.3-44.7-34.3-44.7c-27.5-19,1.8-18.4,1.8-18.4c30.6,2.4,47.1,31.8,47.1,31.8
		c27.5,46.5,71.6,33,89.4,25.7c2.4-19.6,10.4-33,19.6-41c-67.9-8-139.5-34.3-139.5-151.2c0-33.7,12.2-60.6,31.8-82
		c-3.1-8-13.5-38.6,3.1-80.8c0,0,25.7-8,84.5,31.2c24.5-6.7,50.8-10.4,76.5-10.4s52,3.7,76.5,10.4c58.1-39.8,83.8-31.2,83.8-31.2
		c16.5,42.2,6.1,73.4,3.1,80.8c19.6,21.4,31.2,49,31.2,82c0,117.5-71.6,143.2-139.5,151.2c11,9.8,20.8,28.2,20.8,56.9
		c0,41-0.6,74.1-0.6,83.8c0,8,5.5,17.7,20.8,14.7C524.5,645.7,612,531.3,612,396C612,227.1,474.9,90,306,90z"/>
	<polyline id="chevron-down" display="inline" fill="none" stroke="#000000" stroke-miterlimit="10" points="30.6,258.3 306,533.7 
		581.4,258.3 	"/>
	<path display="inline" fill="none" stroke="#000000" stroke-miterlimit="10" d="M328,197.1L526.9,396L328,594.9 M85.1,396h441.9"/>
	<path id="django" display="inline" fill="none" stroke="#000000" stroke-miterlimit="10" d="M286.4,120.6h90v416.8
		c-45.9,8.6-80.2,12.2-116.9,12.2c-110.2,0-167.1-49.6-167.1-145c0-91.8,60.6-151.2,154.8-151.2c14.7,0,25.7,1.2,39.2,4.9
		L286.4,120.6L286.4,120.6z M286.4,330.5c-10.4-3.7-19.6-4.9-30.6-4.9c-45.9,0-72.2,28.2-72.2,77.1c0,47.7,25.1,74.1,71.6,74.1
		c9.8,0,18.4-0.6,31.2-2.4V330.5z M519.6,259.5v208.7c0,72.2-5.5,106.5-20.8,136.5c-14.7,28.8-33.7,46.5-73.4,66.7l-83.8-39.8
		c39.8-19,59.4-34.9,71.6-60c12.9-25.7,17.1-55.7,17.1-134V259.5H519.6z M429.6,121.2h90v92.4h-90V121.2z"/>
	<path id="ruby" display="inline" fill="none" stroke="#000000" stroke-miterlimit="10" d="M568.5,299.3L568.5,299.3
		c-12.2,38.6-29.4,73.4-50.8,106.5c-28.2,43.5-62.4,83.2-98.5,121.2l0,0c-39.2,36.7-80.8,70.4-126.7,96.1
		c-44.1,24.5-93,41.6-148.1,47.1l0,0c-22-0.6-63-1.2-89.4-31.8c-13.5-17.1-23.3-41.6-24.5-78.3l7.3-156.7
		c22-41,65.5-130.4,67.9-131.6c2.4-1.2,75.9-71,113.8-105.9l120.6-43.5l152.4,0.6c51.4,8.6,75.9,36.7,84.5,70.4
		C586.3,227.1,579.6,266.9,568.5,299.3z M517.8,405.8l33,236.2 M550.8,642L419.8,527 M293.1,622.4L550.8,642 M550.8,642l29.4-394.1
		 M550.8,642l-406.4,27.5 M71.6,458.4c39.2,39.8,140.1-9.2,219.7-88.1s120.6-175,81.4-214.2c-39.2-39.8-141.4,6.7-220.9,85.7
		C72.8,320.1,32.4,418.6,71.6,458.4z M30.6,560l37.9-69.8l-30.6-86.9 M144.4,669.6L68.5,490.2L55.7,637.7 M293.1,622.4l-85.1-162.8
		l-63.6,209.9 M208.1,459.6L419.8,527L366,312.8 M568.5,299.3L366,312.8l152.4,93 M577.7,193.4l-168.9-23.9l159.7,129.7
		 M340.3,122.4l68.5,47.1l84.5-46.5 M68.5,490.2l139.5-30.6L366,312.2l42.8-142.6"/>
	<path id="python" display="inline" fill="none" stroke="#000000" stroke-miterlimit="10" d="M231.9,161c13.5,0,24.5,11,24.5,25.1
		s-11,25.1-24.5,25.1s-24.5-11-24.5-25.1C206.9,172,217.9,161,231.9,161z M379.4,577.8c13.5,0,24.5,11,24.5,25.1
		c0,14.1-11,25.1-24.5,25.1c-13.5,0-24.5-11-24.5-25.1S366,577.8,379.4,577.8z M305.4,260.7h-131 M437,527.6h-134 M568.5,327.5
		c-9.2-37.9-27.5-66.7-65.5-66.7H437V194c0-35.5-30-62.4-65.5-68.5c-22.6-3.1-46.5-4.9-68.5-4.9c-22.6,0-44.1,1.8-63,5.5
		c-55.7,9.8-65.5,30.6-65.5,68.5v66.7h-49.6c-37.9,0-71.6,23.3-82,66.7c-12.2,49.6-12.9,80.8,0,133.4c9.2,39.2,31.8,66.7,69.8,66.7
		h61.8v66.7c0,35.5,31.2,56.3,65.5,66.7c41.6,12.2,81.4,14.7,131,0c33-9.8,65.5-28.8,65.5-66.7v-67.3h65.5
		c37.9,0,52.6-26.9,65.5-66.7C582,419.9,581.4,380.7,568.5,327.5z M174.4,527.6v-3.1c0-71,57.5-128.5,128.5-128.5l0,0l0,0l0,0
		c74.1,0,134-60,134-134v-0.6"/>
	<path id="js" display="inline" fill="none" stroke="#000000" stroke-miterlimit="10" d="M30.6,120.6v550.8h550.8V120.6H30.6z
		 M320.7,592.5c-8,16.5-23.9,27.5-41.6,32.4c-27.5,6.1-53.9,2.4-73.4-9.2c-12.9-8-23.3-20.2-30.6-34.9c14.1-8.6,28.2-17.1,41.6-25.7
		c0.6,0,1.2,2.4,3.1,4.9c5.5,9.2,9.8,15.3,19,19.6c9.2,3.1,28.2,4.9,36.1-10.4c4.9-8,3.1-33.7,3.1-62.4c0-44.7,0-88.7,0-133.4h51.4
		c0,47.1,0,94.9,0,142C329.9,544.7,332.9,570.4,320.7,592.5z M534.9,577.8c-17.7,61.2-117.5,63-157.9,22.6
		c-8.6-9.8-13.5-14.7-19-25.7c21.4-12.2,21.4-12.2,41.6-23.9c11,17.1,21.4,26.9,40.4,30.6c25.1,3.1,50.8-5.5,45.3-32.4
		c-6.1-22-52-27.5-83.2-50.8c-31.8-21.4-39.2-72.8-12.9-102.8c8.6-11,23.3-19,39.2-23.3c5.5-0.6,11-1.2,16.5-1.8
		c31.2-0.6,50.8,7.3,64.9,23.3c4.3,4.3,7.3,8.6,13.5,17.7c-16.5,10.4-16.5,10.4-40.4,25.7c-4.9-11-13.5-17.7-22.6-20.8
		c-14.1-4.3-31.2,0.6-34.9,14.7c-1.2,4.3-1.2,8.6,1.2,15.9c5.5,12.9,24.5,18.4,41,26.3c48.3,20.8,64.9,41.6,68.5,66.7
		C540.4,561.9,535.5,575.9,534.9,577.8z"/>
	<path id="php" display="inline" fill="none" stroke="#000000" stroke-miterlimit="10" d="M528.8,362.3c5.5,6.1,7.3,17.1,4.3,32.4
		c-3.1,15.9-9.2,27.5-18.4,34.3c-9.2,6.7-22.6,10.4-41,10.4h-27.5l17.1-86.9h31.2C511,352.5,522.6,355.6,528.8,362.3z M140.8,352.5
		h-30.6L93,439.5h27.5c18.4,0,31.8-3.7,41-10.4c9.2-6.7,14.7-18.4,18.4-34.3c3.1-15.3,1.8-26.3-4.3-32.4
		C169.5,355.6,157.9,352.5,140.8,352.5z M197.7,448.6c-9.2,8.6-19,14.7-30,18.4c-11,3.7-25.1,5.5-42.2,5.5H86.9l-11,55.1H30.6
		L71,320.1h86.9c26.3,0,45.3,6.7,57.5,20.8c12.2,13.5,15.9,33,11,57.5c-1.8,10.4-5.5,19.6-9.8,27.5
		C211.1,433.9,205,441.9,197.7,448.6z M336,472.5l17.7-91.8c1.8-10.4,1.2-17.7-2.4-21.4c-3.7-3.7-11-5.5-22.6-5.5h-36.1l-23.3,118.7
		h-44.7L265,265h44.7l-11,55.1h39.8c25.1,0,42.2,4.3,52,13.5c9.8,8.6,12.2,23.3,8.6,42.8l-19,96.7H336V472.5z M579.6,397.8
		c-1.8,10.4-5.5,19.6-9.8,27.5c-4.9,8.6-11,15.9-18.4,23.3c-9.2,8.6-19,14.7-30,18.4c-11,3.7-25.1,5.5-42.2,5.5h-38.6l-11,55.1
		h-45.3l40.4-207.5h86.9c26.3,0,45.3,6.7,57.5,20.8C580.8,354.4,583.8,373.4,579.6,397.8z"/>
	<path id="java" display="inline" fill="none" stroke="#000000" stroke-miterlimit="10" d="M324.4,441.9c0,0,67.3-34.9,36.7-78.3
		c-28.8-40.4-51.4-60.6,69.2-130.4 M361.1,120.6c23.3,91.2-81.4,118.1-119.3,175c-25.7,38.6,12.9,80.2,64.9,127.3 M233.8,546.6
		c-84.5,23.9,51.4,72.8,159.1,26.3 M220.3,486c-93,31.2,52,66.1,182.4,28.2 M190.9,589.4c-22-15.3-141.4,30-60.6,43.5
		c219.7,35.5,400.9-15.9,343.9-41.6 M243.6,423.5c0,0-38.6-2.4-86.9,20.2c-56.3,27.5,140.1,39.8,241.7,12.9 M421.1,527
		c138.3-36.1,87.5-127.9,21.4-104.7c-5.5,1.8-8.6,6.7-8.6,6.7 M176.3,654.9c0,0,12.9,10.4,77.7,14.7c99.1,6.1,251.5-3.7,255.2-50.8"
		/>
	<path id="rails" display="inline" fill="none" stroke="#000000" stroke-miterlimit="10" d="M327.4,487.8l39.2,17.7l-4.3-28.2
		l-35.5-19L327.4,487.8z M30.6,581.4l50.8,5.5l11-47.1l-49-8.6L30.6,581.4z M211.8,253.4l-33-24.5l-23.3,31.8l36.7,22.6L211.8,253.4
		z M314,170.8l-21.4-28.2l-30,17.7l25.1,26.9L314,170.8z M424.1,151.2l-6.7-22.6l-36.1-3.1l10.4,24.5L424.1,151.2z M135.3,381.9
		l-41.6-18.4l-14.1,41.6l42.8,15.9L135.3,381.9z M342.7,363.6l-7.3,25.7l26.9,24.5l6.7-23.9L342.7,363.6z M421.7,162.8
		C314,157.9,122.4,259.5,94.9,666.5h262.5c-58.8-152.4-52-268.1-11.6-345.8c58.8-113.2,146.9-121.2,228.3-73.4
		c3.1-6.7,6.7-15.3,6.7-15.3C534.9,187.3,490.8,166.5,421.7,162.8z M429,247.3l9.8,23.3l18.4-9.8l-6.7-21.4L429,247.3z M369.6,300.5
		l20.2,27.5l12.2-17.7l-17.1-26.9L369.6,300.5z M400.2,618.8l-12.2-30l-45.3-8l12.2,34.3L400.2,618.8z"/>
	<path id="node" display="inline" fill="none" stroke="#000000" stroke-miterlimit="10" d="M221.5,300.5v216.6c0,39.8-22,63-60,63
		c-11.6,0-20.8,0-46.5-12.9L82.6,549c-12.9-7.3-21.4-21.4-21.4-36.7V279.7c0-15.3,8-29.4,21.4-36.7l202-116.9
		c12.9-7.3,30-7.3,42.2,0l202,116.9c12.9,7.3,21.4,21.4,21.4,36.7v232.6c0,15.3-8,29.4-21.4,36.7l-202,116.3
		c-6.1,4.3-13.5,6.1-20.8,6.1c-7.3,0-14.7-1.8-21.4-5.5l-67.3-39.8 M280.3,430.3c0,39.8,27.5,63,79.6,63c67.3,0,88.7-18.4,88.7-50.8
		c0-28.2-32.4-46.5-80.8-46.5c-44.1,0-78.9-11.6-78.9-44.1c0-27.5,15.9-46.5,71.6-46.5c72.8,0,82,34.3,82,59.4"/>
	<path id="infinity" display="inline" fill="none" stroke="#000000" stroke-miterlimit="10" d="M386.8,315.2
		c44.7-44.7,116.9-44.7,161.6,0s44.7,116.9,0,161.6c-44.7,44.7-116.9,44.7-161.6,0 M386.8,315.2L306,396 M386.8,476.8l-40.4-40.4
		 M265.6,355.6l-40.4-40.4 M225.2,315.2c-44.7-44.7-116.9-44.7-161.6,0s-44.7,116.9,0,161.6s116.9,44.7,161.6,0 M306,396l-80.8,80.8
		"/>
</g>
</svg>
