<?xml version="1.0" encoding="iso-8859-1"?>
<!-- Generator: Adobe Illustrator 18.1.1, SVG Export Plug-In . SVG Version: 6.00 Build 0)  -->
<svg version="1.1" id="Your_Icon" xmlns="http://www.w3.org/2000/svg" xmlns:xlink="http://www.w3.org/1999/xlink" x="0px" y="0px"
	 viewBox="196 341 220 110" style="enable-background:new 196 341 220 110;" xml:space="preserve">
<g>
	<defs>
		<rect id="SVGID_1_" x="196" y="341" width="220" height="110"/>
	</defs>
	<clipPath id="SVGID_2_">
		<use xlink:href="#SVGID_1_"  style="overflow:visible;"/>
	</clipPath>
	<path style="clip-path:url(#SVGID_2_);fill:#343434;" d="M416,509.634v-57.181h-2.908c0-37.797,0-60.088,0-62.026
		c0-7.753,0.969-30.044-26.167-35.859C328.775,341.969,196,341,196,341S64.194,341.969,5.075,354.568
		c-27.137,5.815-26.167,28.106-26.167,35.859c0,1.938,0,48.458,0,118.238H-24v141.498h2.908c0,222.908,0,509.78,0,514.626
		c0,7.753-0.969,30.044,26.167,35.859C63.225,1213.247,196,1214.216,196,1214.216s131.806-0.969,190.925-13.568
		c27.137-5.815,26.167-28.106,26.167-35.859c0-5.815,0-440,0-656.124H416V509.634z M196,374.921c4.846,0,9.692,3.877,9.692,9.692
		c0,4.846-3.877,9.692-9.692,9.692s-9.692-3.877-9.692-9.692C186.308,379.767,191.154,374.921,196,374.921z M393.709,1112.454
		H-1.709V418.533h395.419V1112.454L393.709,1112.454z"/>
</g>
</svg>
