<?xml version="1.0" encoding="utf-8"?>
<!-- Generator: Adobe Illustrator 18.1.1, SVG Export Plug-In . SVG Version: 6.00 Build 0)  -->
<svg version="1.1" id="Layer_1" xmlns="http://www.w3.org/2000/svg" xmlns:xlink="http://www.w3.org/1999/xlink" x="0px" y="0px"
	 viewBox="0 732 60 60" enable-background="new 0 732 60 60" xml:space="preserve">
<g>
	<path fill="#DDDDDD" d="M7.4,792c-0.7,0-1.2-0.5-1.2-1.2V782c0-0.7,0.5-1.2,1.2-1.2c0.7,0,1.2,0.5,1.2,1.2v8.8
		C8.6,791.3,8.1,792,7.4,792z"/>
	<path fill="#DDDDDD" d="M7.4,770.7c-0.7,0-1.2-0.5-1.2-1.2v-36.3c0-0.7,0.5-1.2,1.2-1.2c0.7,0,1.2,0.5,1.2,1.2v36.3
		C8.6,770,8.1,770.7,7.4,770.7z"/>
	<path fill="#DDDDDD" d="M52.5,792c-0.7,0-1.2-0.5-1.2-1.2v-26.4c0-0.7,0.5-1.2,1.2-1.2c0.7,0,1.2,0.5,1.2,1.2v26.4
		C53.7,791.3,53.2,792,52.5,792z"/>
	<path fill="#DDDDDD" d="M52.5,753.1c-0.7,0-1.2-0.5-1.2-1.2v-18.8c0-0.7,0.5-1.2,1.2-1.2c0.7,0,1.2,0.5,1.2,1.2V752
		C53.7,752.6,53.2,753.1,52.5,753.1z"/>
	<path fill="#DDDDDD" d="M29.9,792c-0.7,0-1.2-0.5-1.2-1.2v-32.6c0-0.7,0.5-1.2,1.2-1.2c0.7,0,1.2,0.5,1.2,1.2v32.6
		C31.2,791.3,30.6,792,29.9,792z"/>
	<path fill="#DDDDDD" d="M29.9,746.9c-0.7,0-1.2-0.5-1.2-1.2v-12.5c0-0.7,0.5-1.2,1.2-1.2c0.7,0,1.2,0.5,1.2,1.2v12.5
		C31.2,746.4,30.6,746.9,29.9,746.9z"/>
	<path fill="#DDDDDD" d="M11.1,783.2H3.7c-2,0-3.7-1.7-3.7-3.7v-7.4c0-2,1.7-3.7,3.7-3.7h7.4c2,0,3.7,1.7,3.7,3.7v7.4
		C14.9,781.5,13.2,783.2,11.1,783.2z M3.7,770.7c-0.7,0-1.2,0.5-1.2,1.2v7.4c0,0.7,0.5,1.2,1.2,1.2h7.4c0.7,0,1.2-0.5,1.2-1.2v-7.4
		c0-0.7-0.5-1.2-1.2-1.2H3.7z"/>
	<path fill="#DDDDDD" d="M33.6,759.4h-7.4c-2,0-3.7-1.7-3.7-3.7v-7.4c0-2,1.7-3.7,3.7-3.7h7.4c2,0,3.7,1.7,3.7,3.7v7.4
		C37.5,757.7,35.8,759.4,33.6,759.4z M26.2,746.9c-0.7,0-1.2,0.5-1.2,1.2v7.4c0,0.7,0.5,1.2,1.2,1.2h7.4c0.7,0,1.2-0.5,1.2-1.2v-7.4
		c0-0.7-0.5-1.2-1.2-1.2H26.2z"/>
	<path fill="#DDDDDD" d="M56.3,765.7h-7.4c-2,0-3.7-1.7-3.7-3.7v-7.4c0-2,1.7-3.7,3.7-3.7h7.4c2,0,3.7,1.7,3.7,3.7v7.4
		C60,764,58.3,765.7,56.3,765.7z M48.7,753.1c-0.7,0-1.2,0.5-1.2,1.2v7.4c0,0.7,0.5,1.2,1.2,1.2h7.4c0.7,0,1.2-0.5,1.2-1.2v-7.4
		c0-0.7-0.5-1.2-1.2-1.2H48.7z"/>
</g>
</svg>
