<?xml version="1.0" encoding="iso-8859-1"?>
<!-- Generator: Adobe Illustrator 18.1.1, SVG Export Plug-In . SVG Version: 6.00 Build 0)  -->
<svg version="1.1" id="Layer_1" xmlns="http://www.w3.org/2000/svg" xmlns:xlink="http://www.w3.org/1999/xlink" x="0px" y="0px"
	 viewBox="18.5 246 575 300" style="enable-background:new 18.5 246 575 300;" xml:space="preserve">
<path style="fill:#343434;" d="M91.389,246c-16.279,0-29.517,13.238-29.517,29.517c0,13.059,8.497,24.061,20.215,27.996
	c1.431,0.268,2.057-0.626,2.057-1.431c0-0.716,0-3.041,0-5.456c-8.229,1.789-9.928-3.488-9.928-3.488
	c-1.342-3.399-3.309-4.293-3.309-4.293c-2.683-1.789,0.179-1.789,0.179-1.789c2.952,0.179,4.562,3.041,4.562,3.041
	c2.594,4.472,6.887,3.22,8.587,2.415c0.268-1.878,1.073-3.22,1.878-3.936c-6.53-0.716-13.417-3.309-13.417-14.58
	c0-3.22,1.163-5.814,3.041-7.961c-0.268-0.716-1.342-3.757,0.268-7.782c0,0,2.504-0.805,8.14,3.041
	c2.326-0.626,4.92-0.984,7.424-0.984c2.504,0,5.009,0.358,7.424,0.984c5.635-3.846,8.14-3.041,8.14-3.041
	c1.61,4.025,0.626,7.066,0.268,7.782c1.878,2.057,3.041,4.741,3.041,7.961c0,11.36-6.887,13.864-13.506,14.58
	c1.073,0.894,1.968,2.683,1.968,5.456c0,3.936,0,7.156,0,8.14c0,0.805,0.537,1.699,2.057,1.431
	c11.717-3.936,20.125-14.937,20.125-27.996C120.906,259.148,107.668,246,91.389,246z"/>
<path style="fill:#343434;" d="M116.165,537.86c0,0-2.504-8.139-8.855-14.58c-1.789-1.878-6.53-3.757-9.75-0.984
	c-5.635,4.741-5.635,15.564-5.635,15.564L116.165,537.86L116.165,537.86z M88.705,537.86c0-2.952-2.415-5.367-5.367-5.367
	c-2.415,0-4.383,1.61-5.098,3.757h-9.481c-0.089,0-0.537,0-0.894-0.358c-0.358-0.268-0.268-0.716-0.268-0.984
	c0-0.089,0-0.089,0-0.089l0,0c1.521-5.367,5.098-13.685,5.546-14.401c0.089-0.179,0.447-0.447,0.716-0.537l0.268-0.089v0.179
	c1.699,7.961,3.399,10.733,3.399,10.912l0.179,0.268l2.236-0.447l-5.277-25.313l-2.326,0.447v0.358c0,0.179-0.268,3.667,1.252,11.36
	l0,0l0.089,0.447l-0.358,0.179c-0.537,0.268-1.073,0.626-1.521,1.073c-0.447,0.537-3.936,8.587-5.903,15.206
	c0,0.089,0,0.089,0,0.179c-0.179,0.894,0.089,1.7,0.537,2.326c0.805,0.984,2.057,0.984,2.236,0.984h11.628l0,0L88.705,537.86
	L88.705,537.86z M95.95,505.034l0.805,3.936c1.431,0.358,2.504,1.61,2.504,3.131c0,1.789-1.431,3.22-3.22,3.22
	s-3.22-1.431-3.22-3.22c0-1.073,0.537-2.057,1.342-2.594l-0.805-4.293c-3.399,0.805-5.903,3.846-5.903,7.424
	c0,4.204,3.399,7.692,7.692,7.692c4.204,0,7.692-3.399,7.692-7.692C102.748,508.791,99.797,505.481,95.95,505.034z M95.056,505.034
	c0.268,0,0.626,0,0.894,0.089l-0.537-2.952l-2.594,0.537l0.537,2.594C93.893,505.123,94.43,505.034,95.056,505.034z"/>
<path style="fill:#343434;" d="M526.898,518.987c2.504-1.789,4.114-4.83,4.114-8.14c0-5.546-4.472-10.018-10.018-10.018
	c-5.546,0-10.018,4.472-10.018,9.928c0,3.31,1.61,6.351,4.114,8.229c-5.635,2.326-9.66,8.05-9.66,14.58
	c0,8.587,31.127,8.587,31.127,0C536.559,527.038,532.534,521.224,526.898,518.987z M538.347,519.166
	c1.789-1.342,2.952-3.488,2.952-5.903c0-4.025-3.31-7.335-7.335-7.335c-0.894,0-1.789,0.179-2.594,0.447
	c0.537,1.342,0.894,2.862,0.894,4.383c0,2.862-1.073,5.635-3.041,7.782c5.277,2.952,8.587,8.587,8.587,14.848
	c0,0.268,0,0.537-0.089,0.805c4.204-0.537,7.603-1.968,7.603-4.293C545.414,524.801,542.551,520.866,538.347,519.166z
	 M504.09,533.388c0-6.172,3.22-11.628,8.318-14.669c0.089-0.089,0.179-0.179,0.268-0.179c-1.878-2.057-2.952-4.83-2.952-7.692
	c0-1.521,0.268-2.952,0.805-4.204c-0.894-0.447-1.968-0.626-3.041-0.626c-4.025,0-7.335,3.31-7.335,7.335
	c0,2.415,1.163,4.651,2.952,5.993c-4.114,1.699-7.066,5.635-7.066,10.644c0,2.415,3.757,3.936,8.139,4.383
	C504.09,533.925,504.09,533.656,504.09,533.388z"/>
<path style="fill:#343434;" d="M500.602,269.882c0,0,0,6.619,0,8.229c0,3.22,8.945,5.903,20.036,5.903
	c11.091,0,20.036-2.683,20.036-5.903c0-1.61,0-8.229,0-8.229s-5.277,5.009-20.036,5.009
	C503.911,274.801,500.602,269.882,500.602,269.882z M520.727,286.519c-16.726,0-20.036-5.009-20.036-5.009s0,9.571,0,11.181
	c0,3.22,8.945,5.903,20.036,5.903c11.091,0,20.036-2.683,20.036-5.903c0-1.61,0-11.181,0-11.181S535.485,286.519,520.727,286.519z
	 M520.458,294.479c-1.163,0-2.147-0.984-2.147-2.147s0.984-2.147,2.147-2.147s2.147,0.984,2.147,2.147
	C522.605,293.585,521.711,294.479,520.458,294.479z M520.637,252.172c-11.091,0-20.036,2.683-20.036,5.903
	c0,0.358,6.798,7.066,28.98,4.293c-5.009,1.878-22.093,2.773-28.98-2.773c0,2.147,0,5.456,0,6.708c0,3.22,8.945,5.903,20.036,5.903
	c11.091,0,20.036-2.683,20.036-5.903c0-1.61,0-6.619,0-8.229C540.763,254.855,531.729,252.172,520.637,252.172z"/>
<path style="fill:#343434;" d="M306.058,388.755c5.903,0,10.644,4.741,10.644,10.644c0,5.903-4.741,10.644-10.644,10.644
	c-5.903,0-10.644-4.741-10.644-10.644C295.414,393.496,300.154,388.755,306.058,388.755z M306.058,354.676
	c-20.841,0-38.372,14.222-43.292,33.542c0,0.179-0.089,0.358-0.089,0.537c0,1.163,0.984,2.147,2.147,2.147h17.979
	c0.894,0,1.61-0.537,1.968-1.252v-0.089c3.757-8.05,11.807-13.596,21.288-13.596c12.97,0,23.435,10.465,23.435,23.435
	c0,12.97-10.465,23.435-23.435,23.435c-9.392,0-17.531-5.546-21.288-13.596v-0.089c-0.358-0.716-1.073-1.252-1.968-1.252h-18.068
	c-1.163,0-2.147,0.984-2.147,2.147c0,0.179,0,0.358,0.089,0.537c5.009,19.32,22.451,33.542,43.292,33.542
	c24.687,0,44.723-20.036,44.723-44.723C350.78,374.712,330.745,354.676,306.058,354.676z"/>
<path style="fill:none;stroke:#343434;stroke-width:1.4031;stroke-miterlimit:10;" d="M50.602,488.308
	c-35.331-44.633-41.95-108.05-11.717-160.286c2.952-5.188,6.261-10.107,9.75-14.759"/>
<polygon style="fill:#343434;" points="52.39,316.841 51.496,310.401 45.056,311.295 "/>
<path style="fill:none;stroke:#343434;stroke-width:1.4031;stroke-miterlimit:10;" d="M295.414,345.374
	c-2.236-5.367-4.741-10.733-7.692-15.921c-29.428-52.683-87.299-79.517-143.649-72.004"/>
<polygon style="fill:#343434;" points="290.315,345.374 296.398,347.878 298.902,341.796 "/>
<path style="fill:none;stroke:#CC342D;stroke-width:1.4031;stroke-miterlimit:10;" d="M145.503,541.438
	c5.814,0.716,11.717,1.073,17.71,1.073c60.376,0,111.986-37.388,132.916-90.34"/>
<polygon style="fill:#CC342D;" points="146.04,536.787 140.852,540.812 144.877,546 "/>
<path style="fill:none;stroke:#229922;stroke-width:1.4031;stroke-miterlimit:10;" d="M468.669,257.986
	c-5.814-0.805-11.717-1.252-17.621-1.252c-60.376-0.716-112.433,36.136-133.9,88.819"/>
<polygon style="fill:#229922;" points="466.254,262.011 471.442,257.986 467.417,252.798 "/>
<path style="fill:none;stroke:#343434;stroke-width:1.4031;stroke-miterlimit:10;" d="M563.482,485.714
	c3.488-4.651,6.798-9.571,9.75-14.758c30.143-52.326,23.435-115.742-11.986-160.286"/>
<polygon style="fill:#343434;" points="567.686,487.682 561.156,488.576 560.262,482.136 "/>
</svg>
