<?xml version="1.0" encoding="utf-8"?>
<!-- Generator: Adobe Illustrator 18.1.1, SVG Export Plug-In . SVG Version: 6.00 Build 0)  -->
<svg version="1.1" id="Layer_1" xmlns="http://www.w3.org/2000/svg" xmlns:xlink="http://www.w3.org/1999/xlink" x="0px" y="0px"
	 viewBox="0 0 90 70" enable-background="new 0 0 90 70" xml:space="preserve">
<g>
	<g>
		<polygon fill-rule="evenodd" clip-rule="evenodd" fill="#343434" points="24.7,70 13.6,66 13.6,49.8 24.7,53.6 		"/>
		<polygon fill-rule="evenodd" clip-rule="evenodd" fill="#343434" points="26.7,70 37.8,66 37.8,49.8 26.7,53.6 		"/>
		<polygon fill-rule="evenodd" clip-rule="evenodd" fill="#343434" points="14.8,48.6 26,45.4 36.4,48.8 26,52.3 		"/>
	</g>
	<g>
		<polygon fill-rule="evenodd" clip-rule="evenodd" fill="#343434" points="11.5,47.3 0.4,43.3 0.4,27.1 11.5,30.9 		"/>
		<polygon fill-rule="evenodd" clip-rule="evenodd" fill="#343434" points="13.5,47.3 24.6,43.3 24.6,27.1 13.5,30.9 		"/>
		<polygon fill-rule="evenodd" clip-rule="evenodd" fill="#343434" points="1.6,25.9 12.8,22.7 23.2,26.1 12.8,29.6 		"/>
	</g>
	<g>
		<polygon fill-rule="evenodd" clip-rule="evenodd" fill="#343434" points="37.4,47.3 26.3,43.3 26.3,27.1 37.4,30.9 		"/>
		<polygon fill-rule="evenodd" clip-rule="evenodd" fill="#343434" points="39.4,47.3 50.5,43.3 50.5,27.1 39.4,30.9 		"/>
		<polygon fill-rule="evenodd" clip-rule="evenodd" fill="#343434" points="27.4,25.9 38.7,22.7 49.1,26.1 38.7,29.6 		"/>
	</g>
	<g>
		<polygon fill-rule="evenodd" clip-rule="evenodd" fill="#343434" points="50.6,24.6 39.5,20.6 39.5,4.4 50.6,8.2 		"/>
		<polygon fill-rule="evenodd" clip-rule="evenodd" fill="#343434" points="52.6,24.6 63.7,20.6 63.7,4.4 52.6,8.2 		"/>
		<polygon fill-rule="evenodd" clip-rule="evenodd" fill="#343434" points="40.6,3.2 51.9,0 62.3,3.4 51.9,6.9 		"/>
	</g>
	<g>
		<polygon fill-rule="evenodd" clip-rule="evenodd" fill="#343434" points="76.5,24.6 65.4,20.6 65.4,4.4 76.5,8.2 		"/>
		<polygon fill-rule="evenodd" clip-rule="evenodd" fill="#343434" points="78.5,24.6 89.6,20.6 89.6,4.4 78.5,8.2 		"/>
		<polygon fill-rule="evenodd" clip-rule="evenodd" fill="#343434" points="66.5,3.2 77.7,0 88.1,3.4 77.7,6.9 		"/>
	</g>
</g>
</svg>
