<?xml version="1.0" encoding="UTF-8" standalone="no"?>
<svg width="24px" height="23px" viewBox="0 0 24 23" version="1.1" xmlns="http://www.w3.org/2000/svg" xmlns:xlink="http://www.w3.org/1999/xlink" xmlns:sketch="http://www.bohemiancoding.com/sketch/ns">
    <!-- Generator: bin/sketchtool 1.4 (305) - http://www.bohemiancoding.com/sketch -->
    <title>Fill 26</title>
    <desc>Created with bin/sketchtool.</desc>
    <defs></defs>
    <g id="1.0-Builds" stroke="none" stroke-width="1" fill="none" fill-rule="evenodd" sketch:type="MSPage">
        <g id="00-main-nav-icons" sketch:type="MSArtboardGroup" transform="translate(-23.000000, -235.000000)" stroke="#FFFFFF" stroke-width="2" opacity="0.8">
            <g id="Layout/Sidebar" sketch:type="MSLayerGroup">
                <g id="Nav" transform="translate(0.000000, 70.387597)" sketch:type="MSShapeGroup">
                    <g id="Support" transform="translate(0.000000, 140.000000)">
                        <path d="M44,25 L26,25 C24.346,25 23,26.346 23,28 L23,40 C23,41.654 24.346,43 26,43 L40.299,43 C40.524,43 40.746,43.078 40.923,43.219 L45.375,46.781 C45.556,46.925 45.777,47 46,47 C46.147,47 46.296,46.967 46.434,46.901 C46.779,46.735 47,46.384 47,46 L47,28 C47,26.346 45.654,25 44,25 L44,25 Z M45,43.919 L42.173,41.658 C41.643,41.233 40.977,41 40.299,41 L26,41 C25.448,41 25,40.551 25,40 L25,28 C25,27.449 25.448,27 26,27 L44,27 C44.552,27 45,27.449 45,28 L45,43.919 L45,43.919 Z M30,35 L32,35 L32,33 L30,33 L30,35 Z M38,35 L40,35 L40,33 L38,33 L38,35 Z M34,35 L36,35 L36,33 L34,33 L34,35 Z" id="Fill-26"></path>
                    </g>
                </g>
            </g>
        </g>
    </g>
</svg>