<?xml version="1.0" encoding="utf-8"?>
<!-- Generator: Adobe Illustrator 19.1.0, SVG Export Plug-In . SVG Version: 6.00 Build 0)  -->
<svg version="1.1" id="Layer_1" xmlns="http://www.w3.org/2000/svg" xmlns:xlink="http://www.w3.org/1999/xlink" width="24px" height="22px"
	 viewBox="0 0 24 24" enable-background="new 0 0 24 24" xml:space="preserve">
<path fill="#FFFFFF" d="M21,1H3C1.3,1,0,2.3,0,4v12c0,1.7,1.3,3,3,3h14.3c0.2,0,0.4,0.1,0.6,0.2l4.5,3.6c0.2,0.1,0.4,0.2,0.6,0.2
	c0.1,0,0.3,0,0.4-0.1c0.3-0.2,0.6-0.5,0.6-0.9V4C24,2.3,22.7,1,21,1z M22,19.9l-2.8-2.3C18.6,17.2,18,17,17.3,17H3c-0.6,0-1-0.4-1-1
	V4c0-0.6,0.4-1,1-1h18c0.6,0,1,0.4,1,1V19.9z M7,11h2V9H7V11z M15,11h2V9h-2V11z M11,11h2V9h-2V11z"/>
</svg>
