<?xml version="1.0" encoding="UTF-8" standalone="no"?>
<svg width="16px" height="16px" viewBox="0 0 16 16" version="1.1" xmlns="http://www.w3.org/2000/svg" xmlns:xlink="http://www.w3.org/1999/xlink" xmlns:sketch="http://www.bohemiancoding.com/sketch/ns">
    <!-- Generator: Sketch 3.3.2 (12043) - http://www.bohemiancoding.com/sketch -->
    <title>start</title>
    <desc>Created with Sketch.</desc>
    <defs>
        <linearGradient x1="50%" y1="0%" x2="50%" y2="100%" id="linearGradient-1">
            <stop stop-color="#FFFFFF" offset="0%"></stop>
            <stop stop-color="#000000" offset="100%"></stop>
        </linearGradient>
    </defs>
    <g id="13.0-Iconography" stroke="none" stroke-width="1" fill="none" fill-rule="evenodd" sketch:type="MSPage">
        <g id="13.1-Icons" sketch:type="MSArtboardGroup" transform="translate(-334.000000, -1126.000000)" fill="#333333">
            <g id="UI" sketch:type="MSLayerGroup" transform="translate(105.000000, 767.028347)">
                <g id="Build" transform="translate(0.000000, 317.000000)" sketch:type="MSShapeGroup">
                    <path d="M237,42 C232.588966,42 229,45.8231595 229,50.5227407 C229,53.555416 230.532128,56.3835455 232.998333,57.9041445 C233.151013,57.9978946 233.332361,58.0255935 233.505042,57.9751673 C233.675723,57.9268718 233.820402,57.8075534 233.909742,57.6442009 L237.577381,50.8778549 C237.762064,50.5383658 237.652054,50.103706 237.333361,49.907683 C237.014001,49.7109497 236.606634,49.8281374 236.422619,50.1676265 L233.105675,56.2876646 C231.56088,55.0987423 230.566131,53.2500178 230.373448,51.2329691 L231.665555,51.2329691 C232.032253,51.2329691 232.332278,50.9140766 232.332278,50.5227407 C232.332278,50.1321151 232.032253,49.8125124 231.665555,49.8125124 L230.367447,49.8125124 C230.561463,47.737225 231.600883,45.9268528 233.110343,44.7670498 L233.755063,45.9573926 C233.938412,46.2961716 234.347779,46.412649 234.665139,46.216626 C234.983165,46.0220234 235.092508,45.5859432 234.909159,45.2471642 L234.262439,44.0539805 C235.099175,43.6505708 236.023919,43.4204568 237,43.4204568 C237.975415,43.4204568 238.900158,43.6505708 239.734895,44.0532703 L239.089507,45.246454 C238.906159,45.5852329 239.015501,46.0213132 239.333528,46.216626 C239.650888,46.412649 240.060255,46.2954613 240.243604,45.9566824 L240.889657,44.7663396 C242.39845,45.9268528 243.438537,47.737225 243.632553,49.8132226 L242.333778,49.8132226 C241.967081,49.8125124 241.667056,50.1321151 241.667056,50.5227407 C241.667056,50.9133664 241.967081,51.2329691 242.333778,51.2329691 L243.621885,51.2329691 C243.429869,53.2493076 242.432453,55.0909298 240.888324,56.2784317 L240.243604,55.0895093 C240.060255,54.7507304 239.650888,54.6335427 239.333528,54.8281453 C239.015501,55.0241683 238.906159,55.4602486 239.089507,55.7990275 L240.087591,57.6399395 C240.088257,57.6406497 240.088924,57.64136 240.089591,57.6420702 C240.089591,57.6427804 240.089591,57.6442009 240.090924,57.6449111 C240.138262,57.7329794 240.218268,57.8153659 240.27894,57.8586898 C240.522294,58.0490311 240.808984,58.0234628 241.001667,57.9041445 C243.467206,56.3835455 245,53.555416 245,50.5227407 C245,45.8231595 241.411034,42 237,42" id="start"></path>
                </g>
            </g>
        </g>
    </g>
</svg>