<?xml version="1.0" encoding="UTF-8" standalone="no"?>
<svg width="16px" height="16px" viewBox="0 0 16 16" version="1.1" xmlns="http://www.w3.org/2000/svg" xmlns:xlink="http://www.w3.org/1999/xlink" xmlns:sketch="http://www.bohemiancoding.com/sketch/ns">
    <!-- Generator: Sketch 3.3.2 (12043) - http://www.bohemiancoding.com/sketch -->
    <title>duration</title>
    <desc>Created with Sketch.</desc>
    <defs>
        <linearGradient x1="50%" y1="0%" x2="50%" y2="100%" id="linearGradient-1">
            <stop stop-color="#FFFFFF" offset="0%"></stop>
            <stop stop-color="#000000" offset="100%"></stop>
        </linearGradient>
    </defs>
    <g id="13.0-Iconography" stroke="none" stroke-width="1" fill="none" fill-rule="evenodd" sketch:type="MSPage">
        <g id="13.1-Icons" sketch:type="MSArtboardGroup" transform="translate(-394.000000, -1126.000000)" fill="#333333">
            <g id="UI" sketch:type="MSLayerGroup" transform="translate(105.000000, 767.028347)">
                <g id="Build" transform="translate(0.000000, 317.000000)" sketch:type="MSShapeGroup">
                    <path d="M297,42 C292.588966,42 289,45.8231595 289,50.5227407 C289,53.555416 290.532128,56.3835455 292.998333,57.9041445 C293.151013,57.9978946 293.332361,58.0255935 293.505042,57.9751673 C293.675723,57.9268718 293.820402,57.8075534 293.909742,57.6442009 L297.577381,50.8778549 C297.762064,50.5383658 297.652054,50.103706 297.333361,49.907683 C297.014001,49.7109497 296.606634,49.8281374 296.422619,50.1676265 L293.105675,56.2876646 C291.56088,55.0987423 290.566131,53.2500178 290.373448,51.2329691 L291.665555,51.2329691 C292.032253,51.2329691 292.332278,50.9140766 292.332278,50.5227407 C292.332278,50.1321151 292.032253,49.8125124 291.665555,49.8125124 L290.367447,49.8125124 C290.561463,47.737225 291.600883,45.9268528 293.110343,44.7670498 L293.755063,45.9573926 C293.938412,46.2961716 294.347779,46.412649 294.665139,46.216626 C294.983165,46.0220234 295.092508,45.5859432 294.909159,45.2471642 L294.262439,44.0539805 C295.099175,43.6505708 296.023919,43.4204568 297,43.4204568 C297.975415,43.4204568 298.900158,43.6505708 299.734895,44.0532703 L299.089507,45.246454 C298.906159,45.5852329 299.015501,46.0213132 299.333528,46.216626 C299.650888,46.412649 300.060255,46.2954613 300.243604,45.9566824 L300.889657,44.7663396 C302.39845,45.9268528 303.438537,47.737225 303.632553,49.8132226 L302.333778,49.8132226 C301.967081,49.8125124 301.667056,50.1321151 301.667056,50.5227407 C301.667056,50.9133664 301.967081,51.2329691 302.333778,51.2329691 L303.621885,51.2329691 C303.429869,53.2493076 302.432453,55.0909298 300.888324,56.2784317 L300.243604,55.0895093 C300.060255,54.7507304 299.650888,54.6335427 299.333528,54.8281453 C299.015501,55.0241683 298.906159,55.4602486 299.089507,55.7990275 L300.087591,57.6399395 C300.088257,57.6406497 300.088924,57.64136 300.089591,57.6420702 C300.089591,57.6427804 300.089591,57.6442009 300.090924,57.6449111 C300.138262,57.7329794 300.218268,57.8153659 300.27894,57.8586898 C300.522294,58.0490311 300.808984,58.0234628 301.001667,57.9041445 C303.467206,56.3835455 305,53.555416 305,50.5227407 C305,45.8231595 301.411034,42 297,42" id="duration" transform="translate(297.000000, 50.000000) scale(-1, 1) translate(-297.000000, -50.000000) "></path>
                </g>
            </g>
        </g>
    </g>
</svg>