<?xml version="1.0" encoding="UTF-8" standalone="no"?>
<svg width="16px" height="17px" viewBox="0 0 16 17" version="1.1" xmlns="http://www.w3.org/2000/svg" xmlns:xlink="http://www.w3.org/1999/xlink" xmlns:sketch="http://www.bohemiancoding.com/sketch/ns">
    <!-- Generator: Sketch 3.3.2 (12043) - http://www.bohemiancoding.com/sketch -->
    <title>author</title>
    <desc>Created with Sketch.</desc>
    <defs>
        <linearGradient x1="50%" y1="0%" x2="50%" y2="100%" id="linearGradient-1">
            <stop stop-color="#FFFFFF" offset="0%"></stop>
            <stop stop-color="#000000" offset="100%"></stop>
        </linearGradient>
    </defs>
    <g id="13.0-Iconography" stroke="none" stroke-width="1" fill="none" fill-rule="evenodd" sketch:type="MSPage">
        <g id="13.1-Icons" sketch:type="MSArtboardGroup" transform="translate(-269.000000, -1128.000000)" fill="#333333">
            <g id="UI" sketch:type="MSLayerGroup" transform="translate(105.000000, 767.028347)">
                <g id="Build" transform="translate(0.000000, 317.000000)" sketch:type="MSShapeGroup">
                    <path d="M168.002665,49.3333333 C168.002665,47.1273333 169.79547,45.3333333 172,45.3333333 C174.20453,45.3333333 175.997335,47.1273333 175.997335,49.3333333 C175.997335,51.5393333 174.20453,53.3333333 172,53.3333333 C169.79547,53.3333333 168.002665,51.5393333 168.002665,49.3333333 M174.804797,53.8426667 C176.315123,52.9013333 177.32978,51.2406667 177.32978,49.3333333 C177.32978,46.3926667 174.938708,44 172,44 C169.061292,44 166.67022,46.3926667 166.67022,49.3333333 C166.67022,51.238 167.680213,52.9046667 169.185876,53.8473333 C166.529647,54.8286667 164.522985,57.15 164,60 L165.358428,60 C166.035976,56.9533333 168.754164,54.6666667 172,54.6666667 C175.245836,54.6666667 177.964024,56.9533333 178.641572,60 L180,60 C179.475683,57.1466667 177.466356,54.8213333 174.804797,53.8426667" id="author"></path>
                </g>
            </g>
        </g>
    </g>
</svg>