<?xml version="1.0" encoding="UTF-8" standalone="no"?>
<svg width="14px" height="14px" viewBox="0 0 14 14" version="1.1" xmlns="http://www.w3.org/2000/svg" xmlns:xlink="http://www.w3.org/1999/xlink" xmlns:sketch="http://www.bohemiancoding.com/sketch/ns">
    <!-- Generator: sketchtool 3.4 (381) - http://www.bohemiancoding.com/sketch -->
    <title>Fill 8</title>
    <desc>Created with sketchtool.</desc>
    <defs></defs>
    <g id="1.0-Rebuild" stroke="none" stroke-width="1" fill="none" fill-rule="evenodd" sketch:type="MSPage">
        <g id="rebuild-drowpdown-states-c" sketch:type="MSArtboardGroup" transform="translate(-1450.000000, -48.000000)" fill="#666666">
            <g id="Rebuild-Dropdowns" sketch:type="MSLayerGroup" transform="translate(40.000000, 40.000000)">
                <g id="default" transform="translate(1400.000000, 0.000000)" sketch:type="MSShapeGroup">
                    <g id="Select-Menu">
                        <path d="M17,8 C14.6246667,8 12.44825,9.20108333 11.1666667,11.1365833 L11.1666667,8.58333333 L10.0005833,8.58333333 L10,13.25 L14.6666667,13.25 L14.6666667,12.0833333 L11.9594167,12.0833333 C12.99425,10.296 14.9005833,9.16666667 17,9.16666667 C20.2165,9.16666667 22.8333333,11.7835 22.8333333,15 C22.8333333,18.2170833 20.2165,20.8333333 17,20.8333333 C14.1830833,20.8333333 11.7704167,18.82725 11.2629167,16.0610833 C11.2051667,15.7449167 10.9076667,15.5355 10.5839167,15.59325 C10.2671667,15.651 10.05775,15.9549167 10.1155,16.27225 C10.7245,19.5914167 13.6201667,22 17,22 C20.8599167,22 24,18.8599167 24,15 C24,11.1406667 20.8599167,8 17,8" id="Fill-8" transform="translate(17.000000, 15.000000) scale(-1, 1) translate(-17.000000, -15.000000) "></path>
                    </g>
                </g>
            </g>
        </g>
    </g>
</svg>