<?xml version="1.0" encoding="UTF-8" standalone="no"?>
<svg width="18px" height="18px" viewBox="0 0 18 18" version="1.1" xmlns="http://www.w3.org/2000/svg" xmlns:xlink="http://www.w3.org/1999/xlink" xmlns:sketch="http://www.bohemiancoding.com/sketch/ns">
    <!-- Generator: Sketch 3.3.2 (12043) - http://www.bohemiancoding.com/sketch -->
    <title>Status-Cancelled</title>
    <desc>Created with Sketch.</desc>
    <defs></defs>
    <g id="Page-1" stroke="none" stroke-width="1" fill="none" fill-rule="evenodd" sketch:type="MSPage">
        <g id="Fill-150-+-Rectangle-4-Copy-+-Fill-150-+-Rectangle-4" sketch:type="MSLayerGroup">
            <g id="Fill-150-+-Rectangle-4-Copy" fill="#FFFFFF" sketch:type="MSShapeGroup">
                <path d="M9,0 C4.03725,0 0,4.03725 0,9 C0,13.96275 4.03725,18 9,18 C13.96275,18 18,13.96275 18,9 C18,4.03725 13.96275,0 9,0" id="Fill-150"></path>
            </g>
            <g id="Fill-150-+-Rectangle-4" fill="#999999" sketch:type="MSShapeGroup">
                <path d="M9,0 C4.03725,0 0,4.03725 0,9 C0,13.96275 4.03725,18 9,18 C13.96275,18 18,13.96275 18,9 C18,4.03725 13.96275,0 9,0 Z M4.00247329,10 C3.44882258,10 3,9.55613518 3,9 C3,8.44771525 3.45576096,8 4.00247329,8 L13.9975267,8 C14.5511774,8 15,8.44386482 15,9 C15,9.55228475 14.544239,10 13.9975267,10 L4.00247329,10 Z" id="Fill-150"></path>
            </g>
        </g>
    </g>
</svg>
